# xmcd
#
# Track frame offsets:
# 150
# 17779
# 29840
# 44350
# 63002
# 77126
# 92310
# 106871
# 127913
# 146032
# 162462
# 177707
# 198965
# 220763
# 234519
# 244384
#
# Disc length: 3414 seconds
#
#
# Revision: 0
# Processed by: cddbd v1.5.1PL0 Copyright (c) Steve Scherf et al.
# Submitted via: FreeRIP 2.941 
#
DISCID=dc0d5410
DTITLE=John Denver - Unplugged
DYEAR=0089
DGENRE=Folk
TTITLE0=Annie s Song
TTITLE1=Permats Love
TTITLE2=Dream Land Express
TTITLE3=Rocky Mountain
TTITLE4=Season of the Hemy
TTITLE5=Whispering Jesse
TTITLE6=Take me Home, Country Road
TTITLE7=For You
TTITLE8=Wind Song
TTITLE9=Leaving on a Jet Plane
TTITLE10=I am Sorry
TTITLE11=Back Home Again
TTITLE12=sunshine on my Shoulders
TTITLE13=Thank God, I am a Country Boy
TTITLE14=Christmas for a Cowboys
TTITLE15=Love Again
EXTD=
EXTT0=
EXTT1=
EXTT2=
EXTT3=
EXTT4=
EXTT5=
EXTT6=
EXTT7=
EXTT8=
EXTT9=
EXTT10=
EXTT11=
EXTT12=
EXTT13=
EXTT14=
EXTT15=
PLAYORDER=
